<?xml version="1.0" encoding="UTF-8"?>
<svg width="219px" height="128px" viewBox="0 0 219 128" version="1.1" xmlns="http://www.w3.org/2000/svg" xmlns:xlink="http://www.w3.org/1999/xlink">
    <title>Alert Modal</title>
    <g id="Alert-Modal" stroke="none" stroke-width="1" fill="none" fill-rule="evenodd">
        <g id="Group" transform="translate(64.000000, 18.000000)">
            <path d="M46,92 C68.5230938,92 87.2654444,75.8127138 91.2279315,54.4372616 C91.7349625,51.7021065 92,48.8820047 92,46 C92,20.5949015 71.4050985,0 46,0 C20.5949015,0 0,20.5949015 0,46 C0,71.4050985 20.5949015,92 46,92 Z" id="Oval" fill="#E0E0E0"></path>
            <path d="M34.6341841,40.6167261 L40.9450889,45.883758 L57.3658159,31.4042553 L68.0001273,41.3778467 L70,43.2534654 L70,63 L22,63 L22,51.1507899 L34.6341841,40.6167261 Z M27.2173913,30 C24.3372891,30 22,32.3590458 22,35.2659574 C22,38.1728691 24.3372891,40.5319149 27.2173913,40.5319149 C30.0974935,40.5319149 32.4347826,38.1728691 32.4347826,35.2659574 C32.4347826,32.3590458 30.0974935,30 27.2173913,30 Z" id="Shape" fill="#BDBDBD" fill-rule="nonzero"></path>
        </g>
    </g>
</svg>