<?xml version="1.0" encoding="UTF-8"?>
<svg width="219px" height="91px" viewBox="0 0 219 91" version="1.1" xmlns="http://www.w3.org/2000/svg" xmlns:xlink="http://www.w3.org/1999/xlink">
    <title>Alert Modal</title>
    <g id="Alert-Modal" stroke="none" stroke-width="1" fill="none" fill-rule="evenodd">
        <g id="Group" transform="translate(70.000000, 15.000000)">
            <g id="Button" transform="translate(0.000000, 37.000000)">
                <path d="M12,0 L67,0 C73.627417,-1.21743675e-15 79,5.372583 79,12 C79,18.627417 73.627417,24 67,24 L53.0971838,24 L12,24 C5.372583,24 -9.64732338e-16,18.627417 0,12 C-8.11624501e-16,5.372583 5.372583,1.21743675e-15 12,0 Z" id="Rectangle" fill="#757575"></path>
                <circle id="Oval" stroke="#979797" fill="#E0E0E0" cx="65" cy="12" r="8"></circle>
            </g>
            <g id="Button">
                <path d="M12,0 L67,0 C73.627417,-1.21743675e-15 79,5.372583 79,12 C79,18.627417 73.627417,24 67,24 L53.0971838,24 L12,24 C5.372583,24 -9.64732338e-16,18.627417 0,12 C-8.11624501e-16,5.372583 5.372583,1.21743675e-15 12,0 Z" id="Rectangle" fill="#757575"></path>
                <circle id="Oval" stroke="#979797" fill="#E0E0E0" cx="15" cy="12" r="8"></circle>
            </g>
        </g>
    </g>
</svg>