<?xml version="1.0" encoding="UTF-8"?>
<svg width="485px" height="286px" viewBox="0 0 485 286" version="1.1" xmlns="http://www.w3.org/2000/svg" xmlns:xlink="http://www.w3.org/1999/xlink">
    <title>Alert</title>
    <g id="Alert" stroke="none" stroke-width="1" fill="none" fill-rule="evenodd">
        <g id="Alert-2" transform="translate(-73.000000, -172.000000)">
            <g id="Alert" transform="translate(74.000000, 173.000000)">
                <g id="Danger">
                    <rect id="Rectangle" stroke="#D8D8D8" x="0" y="0" width="483" height="62"></rect>
                    <rect id="Rectangle" fill="#ECCCCC" x="0" y="0" width="64" height="62"></rect>
                    <rect id="Rectangle" fill="#ECCCCC" x="476" y="0" width="7" height="62"></rect>
                    <rect id="Rectangle" fill="#AEB1B4" x="85" y="22" width="160" height="8" rx="4"></rect>
                    <rect id="Rectangle" fill="#ECCCCC" x="85" y="36" width="245" height="6" rx="3"></rect>
                    <text id="x" font-family="Nunito-Bold, Nunito" font-size="24" font-weight="bold" fill="#ECCCCC">
                        <tspan x="446" y="37">x</tspan>
                    </text>
                    <g id="exclamation-circle" transform="translate(16.000000, 15.000000)" fill="#7D8591" fill-rule="nonzero">
                        <path d="M32,16 C32,24.8385161 24.8359355,32 16,32 C7.16406452,32 0,24.8385161 0,16 C0,7.16664516 7.16406452,0 16,0 C24.8359355,0 32,7.16664516 32,16 Z M16,19.2258065 C14.3609677,19.2258065 13.0322581,20.5545161 13.0322581,22.1935484 C13.0322581,23.8325806 14.3609677,25.1612903 16,25.1612903 C17.6390323,25.1612903 18.9677419,23.8325806 18.9677419,22.1935484 C18.9677419,20.5545161 17.6390323,19.2258065 16,19.2258065 Z M13.1823871,8.55832258 L13.6609677,17.3325161 C13.6833548,17.7430968 14.0228387,18.0645161 14.434,18.0645161 L17.566,18.0645161 C17.9771613,18.0645161 18.3166452,17.7430968 18.3390323,17.3325161 L18.8176129,8.55832258 C18.8418065,8.11483871 18.4887097,7.74193548 18.0445806,7.74193548 L13.9553548,7.74193548 C13.5112258,7.74193548 13.1581935,8.11483871 13.1823871,8.55832258 L13.1823871,8.55832258 Z" id="Shape"></path>
                    </g>
                </g>
                <g id="Success" transform="translate(0.000000, 74.000000)">
                    <rect id="Rectangle" stroke="#D8D8D8" x="0" y="0" width="483" height="62"></rect>
                    <rect id="Rectangle" fill="#ECCCCC" x="0" y="0" width="64" height="62"></rect>
                    <rect id="Rectangle" fill="#ECCCCC" x="476" y="0" width="7" height="62"></rect>
                    <rect id="Rectangle" fill="#AEB1B4" x="85" y="22" width="160" height="8" rx="4"></rect>
                    <rect id="Rectangle" fill="#ECCCCC" x="85" y="36" width="245" height="6" rx="3"></rect>
                    <text id="x" font-family="Nunito-Bold, Nunito" font-size="24" font-weight="bold" fill="#ECCCCC">
                        <tspan x="446" y="37">x</tspan>
                    </text>
                    <g id="check-circle" transform="translate(16.000000, 15.000000)" fill="#7D8591" fill-rule="nonzero">
                        <path d="M32,16 C32,24.8365806 24.8365806,32 16,32 C7.16341935,32 0,24.8365806 0,16 C0,7.16341935 7.16341935,0 16,0 C24.8365806,0 32,7.16341935 32,16 Z M14.1492903,24.471871 L26.0202581,12.6009032 C26.4233548,12.1978065 26.4233548,11.5441935 26.0202581,11.1410968 L24.5604516,9.68129032 C24.1573548,9.27812903 23.5037419,9.27812903 23.1005806,9.68129032 L13.4193548,19.3624516 L8.89941935,14.8425161 C8.49632258,14.4394194 7.84270968,14.4394194 7.43954839,14.8425161 L5.97974194,16.3023226 C5.57664516,16.7054194 5.57664516,17.3590323 5.97974194,17.762129 L12.6894194,24.4718065 C13.0925806,24.8749677 13.746129,24.8749677 14.1492903,24.471871 L14.1492903,24.471871 Z" id="Shape"></path>
                    </g>
                </g>
                <g id="Question" transform="translate(0.000000, 148.000000)">
                    <rect id="Rectangle" stroke="#D8D8D8" x="0" y="0" width="483" height="62"></rect>
                    <rect id="Rectangle" fill="#ECCCCC" x="0" y="0" width="64" height="62"></rect>
                    <g id="question-circle" transform="translate(16.000000, 15.000000)" fill="#7D8591" fill-rule="nonzero">
                        <path d="M32,16 C32,24.8385161 24.8359355,32 16,32 C7.16406452,32 0,24.8385161 0,16 C0,7.16664516 7.16406452,0 16,0 C24.8359355,0 32,7.16664516 32,16 Z M16.4293548,5.29032258 C12.9134194,5.29032258 10.6709677,6.77141935 8.91006452,9.40374194 C8.68193548,9.74477419 8.75825806,10.2047097 9.08522581,10.4526452 L11.323871,12.1500645 C11.6596774,12.4047097 12.138129,12.344129 12.3990323,12.0131613 C13.5515484,10.5513548 14.3418065,9.70367742 16.096,9.70367742 C17.414,9.70367742 19.0442581,10.5519355 19.0442581,11.83 C19.0442581,12.7961935 18.2466452,13.2923871 16.9452903,14.022 C15.4276129,14.8727742 13.4193548,15.9316774 13.4193548,18.5806452 L13.4193548,18.8387097 C13.4193548,19.2662581 13.766,19.6129032 14.1935484,19.6129032 L17.8064516,19.6129032 C18.234,19.6129032 18.5806452,19.2662581 18.5806452,18.8387097 L18.5806452,18.7527097 C18.5806452,16.9164516 23.9474839,16.84 23.9474839,11.8709677 C23.9474839,8.12890323 20.065871,5.29032258 16.4293548,5.29032258 L16.4293548,5.29032258 Z M16,21.2903226 C14.3635484,21.2903226 13.0322581,22.6216129 13.0322581,24.2580645 C13.0322581,25.8944516 14.3635484,27.2258065 16,27.2258065 C17.6364516,27.2258065 18.9677419,25.8944516 18.9677419,24.2580645 C18.9677419,22.6216129 17.6364516,21.2903226 16,21.2903226 Z" id="Shape"></path>
                    </g>
                    <rect id="Rectangle" fill="#ECCCCC" x="476" y="0" width="7" height="62"></rect>
                    <rect id="Rectangle" fill="#AEB1B4" x="85" y="22" width="160" height="8" rx="4"></rect>
                    <rect id="Rectangle" fill="#ECCCCC" x="85" y="36" width="245" height="6" rx="3"></rect>
                    <text id="x" font-family="Nunito-Bold, Nunito" font-size="24" font-weight="bold" fill="#ECCCCC">
                        <tspan x="446" y="37">x</tspan>
                    </text>
                </g>
                <g id="Info" transform="translate(0.000000, 222.000000)">
                    <rect id="Rectangle" stroke="#D8D8D8" x="0" y="0" width="483" height="62"></rect>
                    <rect id="Rectangle" fill="#ECCCCC" x="0" y="0" width="64" height="62"></rect>
                    <g id="info-circle" transform="translate(16.000000, 13.000000)" fill="#7D8591" fill-rule="nonzero">
                        <path d="M16,0 C7.16406452,0 0,7.16664516 0,16 C0,24.8385161 7.16406452,32 16,32 C24.8359355,32 32,24.8385161 32,16 C32,7.16664516 24.8359355,0 16,0 Z M16,7.09677419 C17.4965161,7.09677419 18.7096774,8.30993548 18.7096774,9.80645161 C18.7096774,11.3029677 17.4965161,12.516129 16,12.516129 C14.5034839,12.516129 13.2903226,11.3029677 13.2903226,9.80645161 C13.2903226,8.30993548 14.5034839,7.09677419 16,7.09677419 Z M19.6129032,23.483871 C19.6129032,23.9114194 19.2662581,24.2580645 18.8387097,24.2580645 L13.1612903,24.2580645 C12.7337419,24.2580645 12.3870968,23.9114194 12.3870968,23.483871 L12.3870968,21.9354839 C12.3870968,21.5079355 12.7337419,21.1612903 13.1612903,21.1612903 L13.9354839,21.1612903 L13.9354839,17.0322581 L13.1612903,17.0322581 C12.7337419,17.0322581 12.3870968,16.6856129 12.3870968,16.2580645 L12.3870968,14.7096774 C12.3870968,14.282129 12.7337419,13.9354839 13.1612903,13.9354839 L17.2903226,13.9354839 C17.717871,13.9354839 18.0645161,14.282129 18.0645161,14.7096774 L18.0645161,21.1612903 L18.8387097,21.1612903 C19.2662581,21.1612903 19.6129032,21.5079355 19.6129032,21.9354839 L19.6129032,23.483871 Z" id="Shape"></path>
                    </g>
                    <rect id="Rectangle" fill="#ECCCCC" x="476" y="0" width="7" height="62"></rect>
                    <rect id="Rectangle" fill="#AEB1B4" x="85" y="22" width="160" height="8" rx="4"></rect>
                    <rect id="Rectangle" fill="#ECCCCC" x="85" y="36" width="245" height="6" rx="3"></rect>
                    <text id="x" font-family="Nunito-Bold, Nunito" font-size="24" font-weight="bold" fill="#ECCCCC">
                        <tspan x="446" y="37">x</tspan>
                    </text>
                </g>
            </g>
        </g>
    </g>
</svg>