<?xml version="1.0" encoding="UTF-8"?>
<svg width="483px" height="296px" viewBox="0 0 483 296" version="1.1" xmlns="http://www.w3.org/2000/svg" xmlns:xlink="http://www.w3.org/1999/xlink">
    <title>Group 2</title>
    <g id="Alert" stroke="none" stroke-width="1" fill="none" fill-rule="evenodd">
        <g id="Alert-1" transform="translate(-78.000000, -172.000000)">
            <g id="Group-2" transform="translate(78.000000, 172.000000)">
                <g id="Group" transform="translate(0.000000, 156.000000)">
                    <path d="M10,0 L473,0 C478.522847,-1.01453063e-15 483,4.4771525 483,10 L483,52 C483,57.5228475 478.522847,62 473,62 L194.809331,62 L194.809331,62 L10,62 C4.4771525,62 5.58162771e-15,57.5228475 0,52 L0,10 C-6.76353751e-16,4.4771525 4.4771525,-2.53818305e-15 10,0 Z" id="Rectangle" fill="#9E9E9E"></path>
                    <rect id="Rectangle" fill="#E0E0E0" x="85" y="22" width="160" height="8" rx="4"></rect>
                    <rect id="Rectangle" fill="#EEEEEE" x="85" y="36" width="245" height="6" rx="3"></rect>
                    <text id="x" font-family="Nunito-Bold, Nunito" font-size="24" font-weight="bold" fill="#BDBDBD">
                        <tspan x="446" y="37">x</tspan>
                    </text>
                    <circle id="Oval" fill="#E0E0E0" cx="42" cy="31" r="16"></circle>
                </g>
                <g id="Group" transform="translate(0.000000, 234.000000)">
                    <path d="M10,0 L473,0 C478.522847,-1.01453063e-15 483,4.4771525 483,10 L483,52 C483,57.5228475 478.522847,62 473,62 L194.809331,62 L194.809331,62 L10,62 C4.4771525,62 5.58162771e-15,57.5228475 0,52 L0,10 C-6.76353751e-16,4.4771525 4.4771525,-2.53818305e-15 10,0 Z" id="Rectangle" fill="#9E9E9E"></path>
                    <rect id="Rectangle" fill="#E0E0E0" x="85" y="22" width="160" height="8" rx="4"></rect>
                    <rect id="Rectangle" fill="#EEEEEE" x="85" y="36" width="245" height="6" rx="3"></rect>
                    <text id="x" font-family="Nunito-Bold, Nunito" font-size="24" font-weight="bold" fill="#BDBDBD">
                        <tspan x="446" y="37">x</tspan>
                    </text>
                    <circle id="Oval" fill="#E0E0E0" cx="42" cy="31" r="16"></circle>
                </g>
                <g id="Group">
                    <path d="M10,0 L473,0 C478.522847,-1.01453063e-15 483,4.4771525 483,10 L483,52 C483,57.5228475 478.522847,62 473,62 L194.809331,62 L194.809331,62 L10,62 C4.4771525,62 5.58162771e-15,57.5228475 0,52 L0,10 C-6.76353751e-16,4.4771525 4.4771525,-2.53818305e-15 10,0 Z" id="Rectangle" fill="#9E9E9E"></path>
                    <rect id="Rectangle" fill="#E0E0E0" x="85" y="22" width="160" height="8" rx="4"></rect>
                    <rect id="Rectangle" fill="#EEEEEE" x="85" y="36" width="245" height="6" rx="3"></rect>
                    <text id="x" font-family="Nunito-Bold, Nunito" font-size="24" font-weight="bold" fill="#BDBDBD">
                        <tspan x="446" y="37">x</tspan>
                    </text>
                    <circle id="Oval" fill="#E0E0E0" cx="42" cy="31" r="16"></circle>
                </g>
                <g id="Group" transform="translate(0.000000, 78.000000)">
                    <path d="M10,0 L473,0 C478.522847,-1.01453063e-15 483,4.4771525 483,10 L483,52 C483,57.5228475 478.522847,62 473,62 L194.809331,62 L194.809331,62 L10,62 C4.4771525,62 5.58162771e-15,57.5228475 0,52 L0,10 C-6.76353751e-16,4.4771525 4.4771525,-2.53818305e-15 10,0 Z" id="Rectangle" fill="#9E9E9E"></path>
                    <rect id="Rectangle" fill="#E0E0E0" x="85" y="22" width="160" height="8" rx="4"></rect>
                    <rect id="Rectangle" fill="#EEEEEE" x="85" y="36" width="245" height="6" rx="3"></rect>
                    <text id="x" font-family="Nunito-Bold, Nunito" font-size="24" font-weight="bold" fill="#BDBDBD">
                        <tspan x="446" y="37">x</tspan>
                    </text>
                    <circle id="Oval" fill="#E0E0E0" cx="42" cy="31" r="16"></circle>
                </g>
            </g>
        </g>
    </g>
</svg>