<?xml version="1.0" encoding="UTF-8"?>
<svg width="219px" height="83px" viewBox="0 0 219 83" version="1.1" xmlns="http://www.w3.org/2000/svg" xmlns:xlink="http://www.w3.org/1999/xlink">
    <title>Alert Modal</title>
    <g id="Alert-Modal" stroke="none" stroke-width="1" fill="none" fill-rule="evenodd">
        <g id="Group" transform="translate(68.000000, 14.000000)">
            <polygon id="Rectangle" fill="#757575" points="0 33 84 33 84 54 56.4577651 54 0 54"></polygon>
            <polygon id="Rectangle" fill="#757575" points="0 0 84 0 84 21 56.4577651 21 0 21"></polygon>
            <polygon id="Path" fill="#BDBDBD" fill-rule="nonzero" points="10.2113947 8.91573148 12.3150296 10.5827382 17.7886053 6 21.3333758 9.15662488 22 9.75025505 22 16 6 16 6 12.249745"></polygon>
            <path d="M7.5,6 C6.67197062,6 6,6.67197062 6,7.5 C6,8.32802938 6.67197062,9 7.5,9 C8.32802938,9 9,8.32802938 9,7.5 C9,6.67197062 8.32802938,6 7.5,6 Z" id="Path" fill="#BDBDBD" fill-rule="nonzero"></path>
            <polygon id="Path" fill="#BDBDBD" fill-rule="nonzero" points="66.2113947 40.9157315 68.3150296 42.5827382 73.7886053 38 77.3333758 41.1566249 78 41.750255 78 48 62 48 62 44.249745"></polygon>
            <path d="M63.5,38 C62.6719706,38 62,38.6719706 62,39.5 C62,40.3280294 62.6719706,41 63.5,41 C64.3280294,41 65,40.3280294 65,39.5 C65,38.6719706 64.3280294,38 63.5,38 Z" id="Path" fill="#BDBDBD" fill-rule="nonzero"></path>
        </g>
    </g>
</svg>