<?xml version="1.0" encoding="UTF-8"?>
<svg width="420px" height="223px" viewBox="0 0 420 223" version="1.1" xmlns="http://www.w3.org/2000/svg" xmlns:xlink="http://www.w3.org/1999/xlink">
    <title>Group</title>
    <g id="Card" stroke="none" stroke-width="1" fill="none" fill-rule="evenodd">
        <g id="Card-3" transform="translate(-106.000000, -195.000000)">
            <g id="Group" transform="translate(107.000000, 196.000000)">
                <rect id="Rectangle" stroke="#9E9E9E" stroke-width="2" fill="#FFFFFF" x="0" y="0" width="418" height="221"></rect>
                <path d="M147,51 L299,51 C301.209139,51 303,52.790861 303,55 C303,57.209139 301.209139,59 299,59 L250.5386,59 L250.5386,59 L147,59 C144.790861,59 143,57.209139 143,55 C143,52.790861 144.790861,51 147,51 Z" id="Rectangle" fill="#757575"></path>
                <rect id="Rectangle" fill="#E0E0E0" x="143" y="83" width="194" height="5" rx="2.5"></rect>
                <rect id="Rectangle" fill="#E0E0E0" x="143" y="72" width="244" height="5" rx="2.5"></rect>
                <rect id="Rectangle" fill="#E0E0E0" x="143" y="105" width="194" height="5" rx="2.5"></rect>
                <rect id="Rectangle" fill="#E0E0E0" x="143" y="94" width="229" height="5" rx="2.5"></rect>
                <rect id="Rectangle" fill="#9E9E9E" x="0" y="0" width="120" height="221"></rect>
            </g>
        </g>
    </g>
</svg>