<svg height="128" viewBox="0 0 219 128" width="219" xmlns="http://www.w3.org/2000/svg"><g fill="none" fill-rule="evenodd"><g transform="translate(65 50)"><path d="m18.1590909 3.41463415h66.8409091c2.209139 0 4 1.790861 4 4v13.17073175c0 2.209139-1.790861 4-4 4h-20.5391179-46.3017912c-2.209139 0-4-1.790861-4-4v-13.17073175c0-2.209139 1.790861-4 4-4z" fill="#757575"/><ellipse cx="13.82197" cy="14" fill="#fff" rx="13.82197" ry="14" stroke="#757575" stroke-width="2"/></g><g transform="translate(66 87)"><path d="m24.7444568 3.41463415h53.6701773c5.8461362 0 10.5853659 4.73922972 10.5853659 10.58536585 0 5.8461361-4.7392297 10.5853659-10.5853659 10.5853659h-13.953752-39.7164253c-5.8461362 0-10.5853659-4.7392298-10.5853659-10.5853659 0-5.84613613 4.7392297-10.58536585 10.5853659-10.58536585z" fill="#757575"/><ellipse cx="13.82197" cy="14" fill="#fff" rx="13.82197" ry="14" stroke="#757575" stroke-width="2"/></g><g transform="translate(65 13)"><path d="m14.1590909 3.41463415h74.8409091v21.17073175h-24.5391179-50.3017912z" fill="#757575"/><ellipse cx="13.82197" cy="14" fill="#fff" rx="13.82197" ry="14" stroke="#757575" stroke-width="2"/></g></g></svg>